<svg width="223" height="80" viewBox="0 0 223 80" fill="none" xmlns="http://www.w3.org/2000/svg">
<circle cx="180" cy="40" r="40" fill="#B5F9B4" fill-opacity="0.85"/>
<circle cx="207" cy="16" r="16" fill="#7BE1B0"/>
<path d="M10.7835 23.7076C13.2388 23.7076 15.3845 24.1943 17.2204 25.1676C19.0564 26.1408 20.4721 27.5123 21.4675 29.2819C22.485 31.0294 22.9937 33.0533 22.9937 35.3538C22.9937 37.6322 22.485 39.6562 21.4675 41.4258C20.4721 43.1954 19.0453 44.5668 17.1872 45.5401C15.3513 46.5134 13.2167 47 10.7835 47H2.05716V23.7076H10.7835ZM10.4185 42.0894C12.5642 42.0894 14.2342 41.5032 15.4287 40.3308C16.6232 39.1585 17.2204 37.4995 17.2204 35.3538C17.2204 33.2082 16.6232 31.5381 15.4287 30.3436C14.2342 29.1492 12.5642 28.5519 10.4185 28.5519H7.73094V42.0894H10.4185ZM43.6172 37.4442C43.6172 37.975 43.584 38.528 43.5176 39.1032H30.677C30.7655 40.2534 31.1304 41.1382 31.7719 41.7576C32.4355 42.3548 33.2429 42.6534 34.1941 42.6534C35.6097 42.6534 36.5941 42.0562 37.1471 40.8617H43.1858C42.8762 42.0783 42.3121 43.1732 41.4937 44.1465C40.6973 45.1198 39.6909 45.8829 38.4743 46.4359C37.2577 46.9889 35.8973 47.2654 34.3931 47.2654C32.5793 47.2654 30.9645 46.8783 29.5489 46.1041C28.1332 45.3299 27.0272 44.2239 26.2309 42.7861C25.4345 41.3483 25.0364 39.6672 25.0364 37.7428C25.0364 35.8183 25.4235 34.1372 26.1977 32.6994C26.994 31.2616 28.1 30.1556 29.5157 29.3814C30.9314 28.6072 32.5572 28.2201 34.3931 28.2201C36.1849 28.2201 37.7775 28.5962 39.1711 29.3482C40.5646 30.1003 41.6485 31.1731 42.4227 32.5667C43.219 33.9603 43.6172 35.5861 43.6172 37.4442ZM37.8107 35.9511C37.8107 34.9778 37.4789 34.2036 36.8153 33.6285C36.1517 33.0533 35.3222 32.7658 34.3268 32.7658C33.3756 32.7658 32.5682 33.0423 31.9046 33.5953C31.2632 34.1483 30.865 34.9335 30.7102 35.9511H37.8107ZM54.9386 41.6912L58.9533 28.4856H64.9921L58.4225 47H51.4215L44.8518 28.4856H50.9238L54.9386 41.6912ZM81.6477 32.998V37.7096H67.0485V32.998H81.6477ZM113.005 23.7076V47H107.332V33.0312L102.122 47H97.5435L92.3011 32.998V47H86.6273V23.7076H93.3296L99.8661 39.8331L106.336 23.7076H113.005ZM134.538 37.4442C134.538 37.975 134.505 38.528 134.439 39.1032H121.598C121.686 40.2534 122.051 41.1382 122.693 41.7576C123.357 42.3548 124.164 42.6534 125.115 42.6534C126.531 42.6534 127.515 42.0562 128.068 40.8617H134.107C133.797 42.0783 133.233 43.1732 132.415 44.1465C131.618 45.1198 130.612 45.8829 129.395 46.4359C128.179 46.9889 126.818 47.2654 125.314 47.2654C123.5 47.2654 121.886 46.8783 120.47 46.1041C119.054 45.3299 117.948 44.2239 117.152 42.7861C116.356 41.3483 115.957 39.6672 115.957 37.7428C115.957 35.8183 116.344 34.1372 117.119 32.6994C117.915 31.2616 119.021 30.1556 120.437 29.3814C121.852 28.6072 123.478 28.2201 125.314 28.2201C127.106 28.2201 128.698 28.5962 130.092 29.3482C131.486 30.1003 132.569 31.1731 133.344 32.5667C134.14 33.9603 134.538 35.5861 134.538 37.4442ZM128.732 35.9511C128.732 34.9778 128.4 34.2036 127.736 33.6285C127.073 33.0533 126.243 32.7658 125.248 32.7658C124.297 32.7658 123.489 33.0423 122.826 33.5953C122.184 34.1483 121.786 34.9335 121.631 35.9511H128.732ZM136.403 37.7096C136.403 35.8073 136.757 34.1372 137.465 32.6994C138.195 31.2616 139.179 30.1556 140.418 29.3814C141.657 28.6072 143.039 28.2201 144.566 28.2201C145.782 28.2201 146.888 28.4745 147.884 28.9833C148.901 29.492 149.697 30.1777 150.272 31.0404V22.4468H155.946V47H150.272V44.3456C149.742 45.2304 148.978 45.9382 147.983 46.4691C147.01 47 145.871 47.2654 144.566 47.2654C143.039 47.2654 141.657 46.8783 140.418 46.1041C139.179 45.3078 138.195 44.1908 137.465 42.753C136.757 41.293 136.403 39.6119 136.403 37.7096ZM150.272 37.7428C150.272 36.3271 149.874 35.21 149.078 34.3916C148.304 33.5732 147.353 33.1639 146.225 33.1639C145.096 33.1639 144.134 33.5732 143.338 34.3916C142.564 35.1879 142.177 36.2939 142.177 37.7096C142.177 39.1253 142.564 40.2534 143.338 41.094C144.134 41.9124 145.096 42.3216 146.225 42.3216C147.353 42.3216 148.304 41.9124 149.078 41.094C149.874 40.2755 150.272 39.1585 150.272 37.7428ZM162.904 26.5611C161.909 26.5611 161.091 26.2736 160.449 25.6984C159.83 25.1012 159.52 24.3712 159.52 23.5086C159.52 22.6238 159.83 21.8938 160.449 21.3187C161.091 20.7214 161.909 20.4228 162.904 20.4228C163.878 20.4228 164.674 20.7214 165.293 21.3187C165.935 21.8938 166.256 22.6238 166.256 23.5086C166.256 24.3712 165.935 25.1012 165.293 25.6984C164.674 26.2736 163.878 26.5611 162.904 26.5611ZM165.725 28.4856V47H160.051V28.4856H165.725ZM168.708 37.7096C168.708 35.8073 169.062 34.1372 169.77 32.6994C170.5 31.2616 171.484 30.1556 172.723 29.3814C173.962 28.6072 175.344 28.2201 176.871 28.2201C178.176 28.2201 179.315 28.4856 180.288 29.0164C181.284 29.5473 182.047 30.2441 182.578 31.1068V28.4856H188.251V47H182.578V44.3788C182.025 45.2415 181.25 45.9382 180.255 46.4691C179.282 47 178.143 47.2654 176.837 47.2654C175.333 47.2654 173.962 46.8783 172.723 46.1041C171.484 45.3078 170.5 44.1908 169.77 42.753C169.062 41.293 168.708 39.6119 168.708 37.7096ZM182.578 37.7428C182.578 36.3271 182.179 35.21 181.383 34.3916C180.609 33.5732 179.658 33.1639 178.53 33.1639C177.402 33.1639 176.439 33.5732 175.643 34.3916C174.869 35.1879 174.482 36.2939 174.482 37.7096C174.482 39.1253 174.869 40.2534 175.643 41.094C176.439 41.9124 177.402 42.3216 178.53 42.3216C179.658 42.3216 180.609 41.9124 181.383 41.094C182.179 40.2755 182.578 39.1585 182.578 37.7428Z" fill="black"/>
</svg>
